<?xml version="1.0" encoding="utf-8"?>
<!-- Generator: Adobe Illustrator 25.2.1, SVG Export Plug-In . SVG Version: 6.00 Build 0)  -->
<svg version="1.1" id="Слой_1" xmlns="http://www.w3.org/2000/svg" xmlns:xlink="http://www.w3.org/1999/xlink" x="0px" y="0px"
	 viewBox="0 0 409 453" style="enable-background:new 0 0 409 453;" xml:space="preserve">
<style type="text/css">
	.st0{fill:#FFFFFF;stroke:#282525;stroke-width:0.7087;}
	.st1{fill:#FFFFFF;stroke:#000000;stroke-width:0.7087;}
	.st2{fill:#FFFFFF;}
	.st3{font-family:'BerlinSansFB-Reg';}
	.st4{font-size:37.5537px;}
	.st5{fill:#FFFFFF;stroke:#282525;stroke-width:0.7087;stroke-miterlimit:10;}
	.st6{fill:#FFFFFF;stroke:#000000;stroke-width:0.7087;stroke-miterlimit:10;}
	.st7{fill:#FFFFFF;stroke:#000000;stroke-width:0.7087;stroke-miterlimit:9.9996;}
	.st8{fill:#FFFFFF;stroke:#000000;stroke-width:0.7087;stroke-miterlimit:10.0009;}
	.st9{fill:#FFFFFF;stroke:#000000;stroke-width:0.7087;stroke-miterlimit:9.9994;}
	.st10{fill:#FFFFFF;stroke:#000000;stroke-width:0.7087;stroke-miterlimit:10.001;}
	.st11{fill:#FFFFFF;stroke:#000000;stroke-width:0.7087;stroke-miterlimit:4.0004;}
	.st12{fill:#FFFFFF;stroke:#000000;stroke-width:0.7087;stroke-miterlimit:4;}
	.st13{fill:#FFFFFF;stroke:#282525;stroke-width:0.7087;stroke-miterlimit:4;}
	.st14{letter-spacing:1;}
	.st15{fill:none;stroke:#000000;stroke-width:0.5669;}
</style>
<polygon class="st0" points="29.4,137.1 66.2,137.1 66.4,190.4 66.6,239.3 66.6,242.7 26.4,242.7 10.6,191 "/>
<polygon class="st0" points="30.6,236.8 60.6,236.8 60.4,190.4 60.2,142.9 33.4,142.9 16.6,191 "/>
<polygon class="st0" points="87.3,82.3 82.4,91.4 80.8,121.6 38.5,121.6 48.8,70.8 75,45.6 133.7,45.6 120.4,64.5 134.8,83.2 "/>
<polygon class="st0" points="116,61.5 123.4,50.9 77,50.9 53.4,73.5 45.1,116.3 76.3,116.3 77.1,90.4 77.4,88.9 78.5,87.7 
	83.3,78.6 84.9,76.9 87.3,77 123.8,77.7 116.1,67.8 113.7,64.7 "/>
<path class="st1" d="M28.2,262.3l10.7,73.1l63.1,41.7l23.6-29.9V347c0,0-15.9-4.5-35.4-35.2c-14.2-22.3-17-43.8-17-54L28.2,262.3z"
	/>
<path class="st1" d="M33.8,267l34.2-3.3c0.8,12.2,5.1,31.3,17.6,51c13.1,20.6,24.8,30.1,31.8,34.3l-16.6,21L44,332.5L33.8,267z"/>
<g>
	<path class="st0" d="M80.1,338.5c0,0-17.2-14.5-23.8-48.5c-0.6-2.4-1-1.7-0.7,0.2c0.3,1.9,3.8,30.5,22.8,49.9
		C79.6,339.4,80.1,338.5,80.1,338.5z"/>
	<path class="st0" d="M50.7,281.7c0.5,4.6,2.6,8.2,4.8,8s3.6-4.1,3.1-8.8c-0.5-4.6-2.6-8.2-4.8-8C51.6,273.1,50.2,277,50.7,281.7z"
		/>
	<path class="st0" d="M59.2,289.1c-1.1,4.5-0.4,8.6,1.8,9.1c2.1,0.5,4.8-2.7,5.9-7.2c1.1-4.5,0.4-8.6-1.8-9.1S60.3,284.6,59.2,289.1
		z"/>
	<path class="st0" d="M46.8,296.1c3.3,3.2,7.3,4.6,8.8,3s0.1-5.5-3.3-8.7s-7.3-4.6-8.8-3S43.4,292.9,46.8,296.1z"/>
	<path class="st0" d="M50.8,311c3.8,2.7,7.9,3.4,9.2,1.6s-0.8-5.4-4.6-8.1s-7.9-3.4-9.2-1.6C44.9,304.7,47,308.3,50.8,311z"/>
	<path class="st0" d="M55.4,324.1c4.1,2.2,8.3,2.5,9.3,0.6c1.1-1.9-1.4-5.3-5.5-7.5s-8.3-2.5-9.3-0.6S51.3,321.9,55.4,324.1z"/>
	<path class="st0" d="M62.5,337c4.5,1.1,8.6,0.3,9.1-1.8s-2.7-4.8-7.2-5.9s-8.6-0.3-9.1,1.8C54.8,333.2,58,335.8,62.5,337z"/>
	<path class="st0" d="M64.3,301.3c-1.1,4.5-0.4,8.6,1.8,9.1c2.1,0.5,4.8-2.7,5.9-7.2s0.4-8.6-1.8-9.1
		C68.1,293.5,65.4,296.8,64.3,301.3z"/>
	<path class="st0" d="M70,313.4c-1.1,4.5-0.4,8.6,1.8,9.1c2.1,0.5,4.8-2.7,5.9-7.2c1.1-4.5,0.4-8.6-1.8-9.1
		C73.8,305.6,71.1,308.9,70,313.4z"/>
	<polygon class="st0" points="69.1,325.1 70.4,326.9 72.3,321.5 71.4,321 	"/>
	<polygon class="st0" points="63.3,314.1 64.4,316 66,309 65.1,308.7 	"/>
	<polygon class="st0" points="63.3,314.9 63.5,317.2 58.2,312.3 58.8,311.5 	"/>
	<polygon class="st0" points="69.2,326.1 69.9,328.2 63.5,325 63.9,324.1 	"/>
	<polygon class="st0" points="58.8,301.6 59.3,302.9 61.5,296.5 60.6,296.2 	"/>
	<polygon class="st0" points="58.6,303.4 58.6,301.5 54.7,297.3 54,298 	"/>
	<path class="st0" d="M76.7,323.3c-1.5,4.4-1.1,8.5,1,9.3s5-2.3,6.5-6.7c1.5-4.4,1.1-8.5-1-9.3C81.1,315.9,78.2,318.9,76.7,323.3z"
		/>
	<polygon class="st0" points="75.5,334.6 76.9,335.8 78.7,330.9 77.8,330.5 	"/>
	<polygon class="st0" points="76.2,335.8 77,337.9 70.6,334.7 70.9,333.8 	"/>
</g>
<path class="st1" d="M45.1,191.8c0,3.7-3,6.6-6.6,6.6s-6.6-3-6.6-6.6c0-3.7,3-6.6,6.6-6.6S45.1,188.1,45.1,191.8z"/>
<polygon class="st0" points="396.3,191 380.5,242.7 340.3,242.7 340.3,239.3 340.5,190.4 340.7,137.1 377.5,137.1 "/>
<polygon class="st0" points="390.3,191 373.4,142.9 346.7,142.9 346.5,190.4 346.3,236.8 376.3,236.8 "/>
<polygon class="st0" points="272.1,83.2 286.5,64.5 273.2,45.6 331.9,45.6 358.1,70.8 368.4,121.6 326.2,121.6 324.5,91.4 
	319.6,82.3 "/>
<polygon class="st0" points="293.2,64.7 290.8,67.8 283.1,77.7 319.6,77 321.9,76.9 323.6,78.6 328.4,87.8 329.5,88.9 329.8,90.4 
	330.7,116.3 361.8,116.3 353.5,73.5 329.9,50.9 283.5,50.9 290.9,61.5 "/>
<path class="st1" d="M333.8,257.9c0,10.2-2.9,31.8-17,54c-19.6,30.7-35.5,35.2-35.5,35.2v0.2l23.6,29.9l63.1-41.7l10.7-73.1
	L333.8,257.9z"/>
<path class="st1" d="M362.9,332.5L306,370.1l-16.6-21c7-4.2,18.6-13.7,31.8-34.3c12.5-19.6,16.8-38.7,17.6-51l34.2,3.3L362.9,332.5z
	"/>
<g>
	<path class="st0" d="M326.8,338.5c0,0,17.2-14.5,23.8-48.5c0.6-2.4,1-1.7,0.7,0.2c-0.3,1.9-3.8,30.5-22.8,49.9
		C327.3,339.4,326.8,338.5,326.8,338.5z"/>
	<path class="st0" d="M356.2,281.7c-0.5,4.6-2.6,8.2-4.8,8c-2.2-0.2-3.6-4.1-3.1-8.8c0.5-4.6,2.6-8.2,4.8-8
		C355.3,273.1,356.7,277,356.2,281.7z"/>
	<path class="st0" d="M347.7,289.1c1.1,4.5,0.4,8.6-1.8,9.1s-4.8-2.7-5.9-7.2s-0.4-8.6,1.8-9.1C343.9,281.4,346.6,284.6,347.7,289.1
		z"/>
	<path class="st0" d="M360.1,296.1c-3.3,3.2-7.3,4.6-8.8,3s0-5.5,3.3-8.7s7.3-4.6,8.8-3S363.4,292.9,360.1,296.1z"/>
	<path class="st0" d="M356.1,311c-3.8,2.7-7.9,3.4-9.2,1.6c-1.3-1.8,0.8-5.4,4.6-8.1c3.8-2.7,7.9-3.4,9.2-1.6
		C362,304.7,359.9,308.3,356.1,311z"/>
	<path class="st0" d="M351.5,324.1c-4.1,2.2-8.3,2.5-9.3,0.6s1.4-5.3,5.5-7.5s8.3-2.5,9.3-0.6S355.6,321.9,351.5,324.1z"/>
	<path class="st0" d="M344.4,337c-4.5,1.1-8.6,0.3-9.1-1.8c-0.5-2.1,2.7-4.8,7.2-5.9s8.6-0.3,9.1,1.8
		C352.1,333.2,348.9,335.8,344.4,337z"/>
	<path class="st0" d="M342.6,301.3c1.1,4.5,0.4,8.6-1.8,9.1c-2.1,0.5-4.8-2.7-5.9-7.2s-0.4-8.6,1.8-9.1
		C338.8,293.5,341.5,296.8,342.6,301.3z"/>
	<path class="st0" d="M336.9,313.4c1.1,4.5,0.4,8.6-1.8,9.1c-2.1,0.5-4.8-2.7-5.9-7.2s-0.4-8.6,1.8-9.1S335.8,308.9,336.9,313.4z"/>
	<polygon class="st0" points="337.8,325.1 336.5,326.9 334.6,321.5 335.4,321 	"/>
	<polygon class="st0" points="343.6,314.1 342.5,316 340.9,309 341.8,308.7 	"/>
	<polygon class="st0" points="343.6,314.9 343.4,317.2 348.7,312.3 348.1,311.5 	"/>
	<polygon class="st0" points="337.7,326.1 337,328.2 343.4,325 343,324.1 	"/>
	<polygon class="st0" points="348.1,301.6 347.6,302.9 345.4,296.5 346.3,296.2 	"/>
	<polygon class="st0" points="348.3,303.4 348.3,301.5 352.2,297.3 352.9,298 	"/>
	<path class="st0" d="M330.2,323.3c1.5,4.4,1,8.5-1,9.3c-2.1,0.7-5-2.3-6.5-6.7c-1.5-4.4-1-8.5,1-9.3
		C325.8,315.9,328.7,318.9,330.2,323.3z"/>
	<polygon class="st0" points="331.4,334.6 330,335.8 328.2,330.9 329.1,330.5 	"/>
	<polygon class="st0" points="330.7,335.8 329.9,337.9 336.3,334.7 336,333.8 	"/>
</g>
<path class="st1" d="M373.2,191.8c0,3.7-3,6.6-6.6,6.6c-3.7,0-6.6-3-6.6-6.6c0-3.7,3-6.6,6.6-6.6
	C370.2,185.1,373.2,188.1,373.2,191.8z"/>
<path class="st0" d="M152.1,15.7c0,0,14.5,9.9,19.4,26.4c3.8,0,6.5,0,6.5,0l-1.4-28.4c8.4-0.4,17.1-0.7,26-0.7s17.6,0.2,26,0.7
	l-1.4,28.4c0,0,2.7,0,6.5,0c4.9-16.6,19.4-26.4,19.4-26.4c15.1,1.6,28.6,4,39.9,6.9l-0.3,0.7c-27.5,27.5-30.2,60-30.2,60h-60h-60
	c0,0-2.7-32.4-30.2-60l-0.3-0.7C123.5,19.7,137,17.4,152.1,15.7z"/>
<path class="st1" d="M228,27.9l0.6-13.4c-7.6-0.4-15.5-0.6-23.6-0.6V27C212.8,27.1,220.5,27.4,228,27.9z"/>
<path class="st1" d="M242,44.2c15.3,1.5,27.4,3.5,32.5,4.3c1.9-3.4,4-6.9,6.5-10.4c-4.6-0.8-11.3-1.9-19.4-3
	c-4.2-0.6-8.9-1.1-13.8-1.7C245.5,36.8,243.5,40.4,242,44.2z"/>
<path class="st1" d="M250.3,29.9c14.7,1.7,26.6,3.6,33.1,4.8c2.7-3.6,5.8-7.2,9.3-10.7l0.3-0.7c-9.1-2.3-19.6-4.3-31.1-5.9
	C260.3,19,255.2,23.6,250.3,29.9z"/>
<path class="st1" d="M233.2,61.3l0.3-14c-8.9-0.7-18.6-1.2-28.5-1.3v14.3C214.8,60.3,224.4,60.7,233.2,61.3z"/>
<path class="st1" d="M227.8,31.7c-8-0.5-16.4-0.9-24.8-0.9c-8.7,0-17.3,0.4-25.5,1.1l0.5,11c0,0-0.1,0-0.2,0V43
	c8.1-0.5,16.7-0.9,25.3-0.9c8.3,0,16.5,0.3,24.3,0.9v-0.1c-0.1,0-0.2,0-0.2,0L227.8,31.7z"/>
<path class="st1" d="M201.2,45.9c-9.7,0.1-19.4,0.5-28.3,1.2v14.1c8.7-0.6,18.4-1,28.3-1V45.9z"/>
<path class="st1" d="M237,61.5c14,1,25.2,2.4,30.3,3c1.4-3.8,3.1-8.1,5.3-12.5c-3.9-0.6-10.4-1.7-18.7-2.7c-5-0.6-10.6-1.2-16.6-1.8
	L237,61.5z"/>
<path class="st1" d="M177.3,28c7.7-0.6,15.7-1,23.9-1V13.8c-8.4,0-16.6,0.2-24.5,0.6L177.3,28z"/>
<path class="st1" d="M151.5,49.1c-8.4,1-15.1,1.9-19.1,2.6c2.3,4.6,4.1,8.9,5.5,12.8c2.4-0.3,14.7-1.9,31.1-3V47.4
	C162.7,47.9,156.8,48.5,151.5,49.1z"/>
<path class="st1" d="M153.8,66.6c-7.2,0.7-12.4,1.3-14.6,1.6c2.1,6.8,3,12,3.3,14.4h11.3V66.6z"/>
<path class="st1" d="M145.3,35.6c-8.8,1.4-15.8,2.7-20.2,3.7c2,3,3.9,5.9,5.5,8.8c5.4-0.9,17.5-2.6,32.7-4
	c-1.4-3.6-3.3-7.1-5.5-10.2C153.4,34.4,149.2,35,145.3,35.6z"/>
<path class="st1" d="M112.2,23.3l0.3,0.7c3.9,3.9,7.3,7.9,10.2,11.8c5.8-1.2,17.6-3.6,32.6-5.6c-5-6.5-10.2-11.3-12-12.9
	C131.8,19,121.3,21,112.2,23.3z"/>
<path class="st1" d="M185.7,64.4c-10.5,0.4-20.2,1.1-28.1,1.9v16.4h28.1V64.4z"/>
<path class="st1" d="M251.5,82.6h11.3c0.3-2.4,1.2-7.5,3.3-14.4c-2.2-0.3-7.4-0.9-14.6-1.6L251.5,82.6z"/>
<path class="st1" d="M219.6,82.6h28.1V66.2c-7.9-0.7-17.6-1.4-28.1-1.9V82.6z"/>
<path class="st1" d="M203,64c-4.6,0-9.2,0.1-13.7,0.2v18.3h27.1V64.1C211.9,64.1,207.5,64,203,64z"/>
<text transform="matrix(1 0 0 1 165.0735 72.4374)" class="st2 st3 st4">1779</text>
<text transform="matrix(1 0 0 1 -312.9265 -120.5626)" class="st4" style="font-family:'ArialMT';">1779</text>
<path class="st1" d="M262.6,84.2c0-3.6-26.4-6.4-59.1-6.4s-59.1,2.9-59.1,6.4s26.4,6.4,59.1,6.4S262.6,87.7,262.6,84.2z"/>
<path class="st5" d="M89.6,93c0,0,0,44.1,0,95.9v67.7c0,74,70.9,116.1,113,116.1c14.2,0,30.8-4.3,46.9-12.5c0.5-0.3,1-0.5,1.5-0.8
	c33.7-17.8,64.5-53.1,64.5-102.8c0-74,0-163.6,0-163.6L89.6,93L89.6,93z M202.4,365.8c-21.3,0-48-10.8-68-27.6
	c-17.5-14.6-38.3-42.6-38.3-81.9v-61.1l5.1,4.4L245,355.2C230.8,362,215.9,365.8,202.4,365.8z M271.3,338.2
	c-7.2,6.1-15.1,11.3-23.4,15.5L96,190.3v-72.4l194,199.5C284,326,277.5,333,271.3,338.2z M308.8,256.3c0,19.4-4.9,36-11.9,49.6
	L96,99.5v-0.2h212.7L308.8,256.3L308.8,256.3z"/>
<path class="st6" d="M289.3,300l-7.2,6.9l8.6,8.9c1.9-2.7,3.8-5.6,5.5-8.7L289.3,300z"/>
<rect x="199.8" y="213.2" transform="matrix(0.721 -0.6929 0.6929 0.721 -95.6308 203.4324)" class="st7" width="10" height="14.5"/>
<rect x="178.4" y="191.1" transform="matrix(0.721 -0.6929 0.6929 0.721 -86.2729 182.4078)" class="st7" width="10" height="14.5"/>
<rect x="135.5" y="146.9" transform="matrix(0.721 -0.6929 0.6929 0.721 -67.63 140.3277)" class="st7" width="10" height="14.5"/>
<rect x="157" y="169" transform="matrix(0.721 -0.693 0.693 0.721 -76.9299 161.4297)" class="st8" width="10" height="14.5"/>
<rect x="242.7" y="257.3" transform="matrix(0.7209 -0.693 0.693 0.7209 -114.2267 245.5134)" class="st9" width="10" height="14.5"/>
<rect x="114" y="124.9" transform="matrix(0.7211 -0.6928 0.6928 0.7211 -58.3736 119.3158)" class="st7" width="10" height="14.5"/>
<polygon class="st6" points="95.7,102.6 96.1,115.7 99,118.8 106.2,111.8 97.3,102.6 "/>
<rect x="264.2" y="279.4" transform="matrix(0.7211 -0.6928 0.6928 0.7211 -123.5205 266.453)" class="st7" width="10" height="14.5"/>
<rect x="221.3" y="235.2" transform="matrix(0.7211 -0.6929 0.6929 0.7211 -104.8887 224.4365)" class="st10" width="10" height="14.5"/>
<g>
	<polygon class="st0" points="232.4,326.6 233,315.5 233.1,313.9 231.5,314 220.4,314.5 228.6,307.1 229.8,306 228.6,304.9 
		220.4,297.5 231.5,298 233.1,298.1 233,296.5 232.4,285.4 239.9,293.6 241,294.9 242.1,293.6 249.5,285.4 248.9,296.5 248.9,298.1 
		250.5,298 261.6,297.5 253.3,304.9 252.1,306 253.3,307.1 261.6,314.5 250.5,314 248.9,313.9 248.9,315.5 249.5,326.6 242.1,318.3 
		241,317.1 239.9,318.3 	"/>
	<polygon class="st0" points="178.6,270 179.2,258.9 179.3,257.3 177.6,257.4 166.5,258 174.8,250.5 176,249.4 174.8,248.4 
		166.5,240.9 177.6,241.5 179.3,241.5 179.2,239.9 178.6,228.8 186.1,237.1 187.1,238.3 188.2,237.1 195.7,228.8 195.1,239.9 
		195,241.5 196.6,241.5 207.7,240.9 199.5,248.4 198.3,249.4 199.5,250.5 207.7,258 196.6,257.4 195,257.3 195.1,258.9 195.7,270 
		188.2,261.8 187.1,260.6 186.1,261.8 	"/>
	<polygon class="st0" points="122.4,211.8 122.9,200.7 123,199.1 121.4,199.2 110.3,199.8 118.6,192.3 119.8,191.3 118.6,190.2 
		110.3,182.7 121.4,183.3 123,183.4 122.9,181.8 122.4,170.6 129.8,178.9 130.9,180.1 132,178.9 139.4,170.6 138.9,181.8 
		138.8,183.4 140.4,183.3 151.5,182.7 143.3,190.2 142,191.3 143.3,192.3 151.5,199.8 140.4,199.2 138.8,199.1 138.9,200.7 
		139.4,211.8 132,203.6 130.9,202.4 129.8,203.6 	"/>
	<rect x="179.3" y="241.5" class="st0" width="15.8" height="15.8"/>
	<rect x="123" y="183.5" class="st0" width="15.8" height="15.8"/>
	<rect x="232.8" y="298.4" class="st0" width="15.8" height="15.8"/>
</g>
<g>
	<path class="st1" d="M220.7,168c0,0,1.9-0.1,5,7.3c2.5,5.9,5,10.5,3.4,14c-0.9,1.8-9.1-13.4-10.2-17.3S219.1,166.4,220.7,168z"/>
	<path class="st1" d="M219.9,173.8c0,0,4,9.1,8.9,16.3c6.7,9.8,4,13.1,3,12.8c-1-0.3-11.7-17.8-13.1-22.4
		C217.3,175.8,217.5,172,219.9,173.8z"/>
	<path class="st1" d="M218.4,179.1c0,0,3.1,7.3,9.2,16.6s10.1,15.4,6.7,16.8c-10.3-12.8-18.6-24.9-18.4-29.8
		C216.2,177.9,218.4,179.1,218.4,179.1z"/>
	<path class="st1" d="M215.4,184.5c0,0,7.2,10.7,15.9,22.5c7.9,10.7,5.6,14,3.1,13.1c-3.5-3.3-5.7-7-8.3-10.6
		c-2.6-3.6-12.2-17.4-13.6-20.3C211.2,186.3,213.4,183.4,215.4,184.5z"/>
	<path class="st1" d="M222.6,169.6c0.1-1.7,2.1-3,3.4-1.8s0.4,0.6,1.9,4.4c1.4,3.4,0.7,7.3-0.9,5.7
		C225.3,176.3,222.5,171.6,222.6,169.6z"/>
	<path class="st1" d="M246.4,119.3c0,0,21.2,0.7,29.9,0.3c9.6-0.7,9.5-4.4,9.5-4.4c-11.5-0.7-31.2-1-36.8,0.2
		C247.3,116.6,246.6,118.2,246.4,119.3z"/>
	<path class="st1" d="M245.2,123.2c1.9,0,15.8,0.1,20.5,0.3c4.7,0.2,8.8-1.3,9.5-3.5c0,0-20.6-1.1-23.6-0.8s-5.1,1.9-5.1,1.9
		S245.3,122,245.2,123.2z"/>
	<path class="st1" d="M245.6,125.1c0,0,0.3-1.7,4.4-1.6s17.8,0,17.8,0c-1.7,3.8-2.5,4.4-6.5,4.2c-4-0.1-16.9-0.7-16.9-0.7
		S244.7,125.7,245.6,125.1z"/>
	<path class="st1" d="M244.1,129.1c0,0,0.2-1.6,2.5-1.8c2.3-0.2,14.6,0.6,14.6,0.6s0.3,2.8-4.1,3.8c-7.5-0.3-13.4-0.1-13.4-0.1
		L244.1,129.1z"/>
	<path class="st1" d="M244.3,131.7h13.1c-0.6,3.1-8.8,6.2-16.5,4.2C241,133.2,242.4,131.7,244.3,131.7z"/>
	<path class="st1" d="M248.1,144.8c0,0-4.9-0.2-9.6-3.5c1.8-1.6,5.2-2.6,5.2-2.6C247.2,141.3,248.1,144.8,248.1,144.8z"/>
	<path class="st1" d="M221.1,160c0,0,1.6,3.9,4,4.5c2.5,0.6,6.3-1.8,4.4-2.9C227.5,160.5,220.8,156.2,221.1,160z"/>
	<path class="st1" d="M223.3,163.5c0,0,1.6-0.4,3.9,1.4s4.9,2.1,4.9,2.1c-1.8,1.4-6.4,1.8-8.1,0.6
		C222.3,166.3,221.9,165,223.3,163.5z"/>
	<path class="st1" d="M214,167c1.2-1.5,2.7-0.4,4.1,3.5s1.8,5.6-0.4,8c-1.7,1.8-1.4,2.6-2.1-2.9C215.3,173.2,212.1,169.3,214,167z"
		/>
	<path class="st1" d="M217.4,167.6c0,0-1.3-1.6-1.1-3.8c0.2-2.2-0.3-3.9,1.4-2.4c1.7,1.4,4.1,4.6,4.6,7.4s-2.7,7.6-3.2,5
		C218.8,171.5,218.5,170.8,217.4,167.6z"/>
	<path class="st1" d="M222.5,168.8c0,0,0.4-2-1.4-4.3c-1.8-2.4-3-3.8-0.8-4.4s3.7,1.3,4.6,3.6C225.7,166.2,223.6,168.8,222.5,168.8z
		"/>
	<path class="st1" d="M250.9,115.4c0,0-1.5,3.8-5.7,4.6c-4.2,0.8-9.4,2.2-9.4,2.2c-0.4-1.4,0.7-3.5,3.5-4.6
		C242.2,116.4,248.8,115.8,250.9,115.4z"/>
	<path class="st1" d="M234.2,127.1c0,0,0.2-4.5,3.8-5.3c3.6-0.8,8.7-2.3,11.6-2.3c-3.3,4.8-3.9,5.2-11.7,6.6
		C235.7,127.4,235.9,126.7,234.2,127.1z"/>
	<path class="st1" d="M249,123.9c0,0-1.6,4.8-5.8,5.8c-4.1,1-10.3,1.8-10.3,1.8s-1.1-3.5,1-4.5C235.9,125.9,249,123.9,249,123.9z"/>
	<path class="st1" d="M227.3,137.1c0,0,8.2-1.2,10.5-1.2s7.3-0.2,8.6-6.4c-2-0.2-2.1-0.2-5.4,0.5c-3.3,0.8-11,0.7-12.3,4.2
		C228.4,134.6,227.3,137.1,227.3,137.1z"/>
	<path class="st1" d="M240.4,135.9c0,0,1.9-0.5,3.2,0.7c-1.9,3.9-2.6,4.8-6,4.4s-6.9-1.7-8.4-3.7C234.8,136.5,239.3,136,240.4,135.9
		z"/>
	<path class="st1" d="M237.2,117.4c0,0,1.4,3.7-3.4,5.8s-8.6,2.2-8.6,2.2c1-3.7,3.3-5.4,6.7-6.2
		C235.3,118.4,237.2,117.4,237.2,117.4z"/>
	<path class="st1" d="M226.5,125.7c0,0,8.1-2.5,9.5-2.7c-0.6,3.5-3.4,6.4-6.4,7.1c-3.1,0.7-4.2-1.5-4.2-1.5
		C225.7,127.5,226.5,125.7,226.5,125.7z"/>
	<path class="st1" d="M226.5,130.4c0,0-2.6,1.1-2.9,3.9c4.8,1.7,9.6-2.3,11-5.9C233.2,129,230.3,128.5,226.5,130.4z"/>
	<path class="st1" d="M211,172.6c0,0,1.8-2.5,3.3-0.6s2.9,5.3,2.2,9c-0.8,3.9-1.3,4.8-2.4,2.4C212.9,181,208.1,175.8,211,172.6z"/>
	<path class="st1" d="M217.5,127.2c0,0-3.6,0-2.4,1.5s3.3,6,10.1,2.7c6.8-3.3-1.1-8.7,7.2-11.9s15.5-5.3,37.8-5s19.4,0.8,24.2,0.3
		c4.9-0.5,11.1-5.3,1-4.7c-10.1,0.5-47.7,0.2-60.3,2.7c-12.8,2.6-14.8,5.2-14.5,6.4C221,120.7,225.3,124.1,217.5,127.2z"/>
	<path class="st1" d="M270.4,159.1"/>
	<path class="st1" d="M210.7,174.7c0,0,3.2,4.1,4,7.9s-0.3,7.1-2.2,6.3c-1.8-0.8-5.5-8.3-6.5-10C205,177.2,209.2,172.9,210.7,174.7z
		"/>
	<path class="st1" d="M204,166.4c0,0,3.2,4.6,3.9,8.3s-0.6,4.3-2.4,4.2c-1.8-0.1-4.8-6.9-5.5-9.3C199.4,167.1,202.1,164.6,204,166.4
		z"/>
	<path class="st1" d="M204.1,165.2c0,0-0.2-1.8,1.8-2s4.7,2.9,5.4,6.1s-1.6,8.3-3.3,6.4C206.3,173.8,204.3,167.4,204.1,165.2z"/>
	<path class="st1" d="M207.9,162.9c0-0.9,0.9-2.9,2.6-2.3s4.6,5.6,3.2,8.9s-2.4,3.4-2.9,1.5C210.3,169.2,207.9,164.3,207.9,162.9z"
		/>
	<path class="st1" d="M211.9,161.8c0,0-1.8-1.7-1-3.3c0.8-1.6,2.5-2.1,3.9,0c1.4,2.2,3.6,6.5,2,8C215,168,213.7,165,211.9,161.8z"/>
	<path class="st1" d="M215.7,153.7c0,0-1.9,0.1-2.4,1.6s0.1,2.4,2,4.4s4.2,4.1,5.3,3.1C221.8,161.9,220.1,155.9,215.7,153.7z"/>
	<path class="st1" d="M237.8,164.6c0,0-3.7,5.9-11.7-0.8c0.9-1.6,2.9-2.1,5-1C233.2,163.9,237.8,164.6,237.8,164.6z"/>
	<path class="st1" d="M206.1,142.9c0,0,5,2.5,8,4.5s0.5,5.8-2.4,9.5s-3.9,6.2-8.9,8.5s-0.4,5.9,4.6,13.6s20.6,30.6,27.2,39.5
		c6.5,9,8.3,12,5.4,15.8c-5.8-6.9-7.5-10.1-18.4-24.2c-6.5-8.4-22.8-31.9-28.6-40.6c-4.9-10.3,7.1-9.4,11.1-14
		C207.9,151,206.1,142.9,206.1,142.9z"/>
	<path class="st1" d="M192.8,127.4c0,0,4.5,6.9,9.2,10.1s7.4,22,39.6,28c16.5,3,32.8-2.7,30.9-6.7s-12.6-10.9-26.8-14.6
		c-14.2-3.7-24-12.4-33.6-19.6s-9.2-12.2-29.9-6.2C189.9,122.6,192.8,127.4,192.8,127.4z"/>
	<path class="st1" d="M197.8,121.6c-0.1,0.5-0.9,0.8-1.8,0.6c-0.9-0.2-1.5-0.7-1.4-1.2s0.9-0.8,1.8-0.6S197.9,121.1,197.8,121.6z"/>
	<path class="st1" d="M210.5,123.4c0,0-1.8,10.1-9.5,13.2c1.1,3.9,4,4.1,4,4.1s9.1-4.7,9.2-15.1C213,124.3,210.5,123.4,210.5,123.4z
		"/>
	<path class="st1" d="M279.8,142.3c-1.9-1.9-3.6-0.5-8.2,3.2s-10.6,4-10.6,4c0.5,2.1,2.5,3.4,4.8,3.3
		C271.6,152.1,284.6,147.1,279.8,142.3z"/>
	<path class="st1" d="M284.3,146.8c0,0-1.9-3.1-10,3.5c-6.3,3.8-10.2,1.9-10.2,3s2,2.5,10.8,1C283.6,152.8,288,152.3,284.3,146.8z"
		/>
	<path class="st1" d="M283.5,152.7c0,0,3.9-0.7,4,1.3s-1,4.5-8.1,5s-11.3-0.6-11.6-1.9s2.1-1.2,3.8-1.7
		C273.2,154.9,278.6,154.2,283.5,152.7z"/>
	<path class="st1" d="M282.4,159.1c0,0,5.3,0.3,4.4,2.8s-12.4,1.6-16.5-0.4s1-2.4,2.7-2.2C274.6,159.3,280.3,158.8,282.4,159.1z"/>
	<path class="st1" d="M269.8,161.8c0,0,8.2,0.8,12.4,3.7c4.2,2.9-0.3,6.4-3.4,4.2c-4.2-3-10.6-5.2-14.5-5.2
		C265.2,162.8,268.4,161.6,269.8,161.8z"/>
	<path class="st1" d="M264.2,164.8c0,0,3.3,0,8.8,1.9s6.9,3.9,6.2,6c-0.7,2-2.2,2-6.7-1.7c-4.5-3.6-16.8-3.1-15.4-5.2
		C258.8,165.2,260.5,164.9,264.2,164.8z"/>
	<path class="st1" d="M245.5,165.7c0,0,10.1,0.6,15.8,2s15,3.4,13.9,8.5s-6.1-1.5-9.9-3.2s-13.8-4.7-20.4-5.8
		C243.7,166.6,243.2,165.5,245.5,165.7z"/>
</g>
<g>
	
		<rect x="125.4" y="291.3" transform="matrix(0.7071 -0.7072 0.7072 0.7071 -168.9995 183.5226)" class="st11" width="23.2" height="8.8"/>
	
		<rect x="143.8" y="283.7" transform="matrix(0.7071 -0.7071 0.7071 0.7071 -173.6723 194.2407)" class="st12" width="7.6" height="46.1"/>
</g>
<g>
	<polygon class="st0" points="172.7,307.4 166.5,304.6 153,291.1 159.3,284.7 172.9,298.2 175.1,305 	"/>
	
		<rect x="129.2" y="302.3" transform="matrix(0.7072 -0.707 0.707 0.7072 -171.5383 198.0118)" class="st13" width="48.2" height="7.6"/>
</g>
<path class="st1" d="M300.8,336.6c-28.2,32.8-69.6,50.5-98.9,50.5s-70.7-17.7-98.9-50.5l-35.7,39c36.9,40.3,92.1,63.7,134.6,63.7
	s97.7-23.4,134.6-63.7L300.8,336.6z"/>
<path class="st1" d="M268.6,417.2c-22.7,10.7-46.4,16.6-66.7,16.6s-43.9-5.9-66.7-16.6c-22.5-10.6-43-25.2-59.6-42.4l27.4-30
	c13.1,14,29.1,25.8,46.7,34.3c17.9,8.7,36.5,13.5,52.3,13.5s34.3-4.8,52.3-13.5c17.6-8.6,33.6-20.3,46.7-34.3l27.4,30
	C311.6,392,291,406.6,268.6,417.2z"/>
<g>
	<polygon class="st1" points="95,383.8 110,366.3 119.1,374.1 122.3,370.4 109.3,359.4 91.3,380.5 	"/>
	<path class="st1" d="M130.9,375.9c-7.9,0-14.3,6.4-14.3,14.3c0,7.9,6.4,14.3,14.3,14.3s14.3-6.4,14.3-14.3
		C145.2,382.3,138.8,375.9,130.9,375.9z M130.9,399.7c-5.2,0-9.5-4.2-9.5-9.5c0-5.2,4.2-9.5,9.5-9.5c5.2,0,9.5,4.2,9.5,9.5
		S136.1,399.7,130.9,399.7z"/>
	<path class="st1" d="M217.3,397.2c-7.9,0-14.3,6.4-14.3,14.3c0,7.9,6.4,14.3,14.3,14.3s14.3-6.4,14.3-14.3
		C231.5,403.6,225.1,397.2,217.3,397.2z M217.3,420.9c-5.2,0-9.5-4.2-9.5-9.5c0-5.2,4.2-9.5,9.5-9.5c5.2,0,9.5,4.2,9.5,9.5
		C226.7,416.7,222.5,420.9,217.3,420.9z"/>
	<path class="st1" d="M160.8,389.5l-4.1-1.6l-10.2,27.2l4.1,1.6l2-5.2c0.1,0,0.1,0,0.2-0.1c0,0,11,2.1,14.6-7.4
		C170.8,394.5,160.8,389.5,160.8,389.5z M154.1,407.5l5.2-13.9c0,0,5.7,3.8,3.8,8.9C161.1,407.7,154.1,407.5,154.1,407.5z"/>
	<polygon class="st1" points="171.7,422.8 176.3,423.5 185.3,407.1 187.7,425.3 192.7,426.2 187.9,396.2 187,396.1 	"/>
	<path class="st1" d="M251.7,401.1c3.1-4.5-1.3-13.6-7.6-11.2c-6.6,2.6-8.4,3.3-8.4,3.3l10.7,27.2c0,0,4.3-1.7,8.8-3.5
		s5.7-6.5,3.8-11.2C256.9,400.3,251.7,401.1,251.7,401.1z M241.7,395.6c0,0,1-0.4,1.6-0.6c0.4-0.2,3.2-1.1,4.2,1.4s-0.8,3.9-1.7,4.3
		c-0.9,0.3-1.8,0.7-1.8,0.7L241.7,395.6z M252.4,413.8c-1.4,0.6-3,1.2-3,1.2l-3.7-9.5c0,0,1.6-0.6,2.7-1.1c0.6-0.2,5.3-1.8,6.9,2.3
		C256.8,410.8,253.8,413.2,252.4,413.8z"/>
	<polygon class="st1" points="282.8,403.5 287.4,401.3 271.4,385.8 273.3,375.7 267.8,378.6 266.5,387.6 263.1,381.1 259.4,383 
		273,408.9 276.7,407 269.8,394 270.7,390.6 	"/>
	<path class="st1" d="M307.4,377.7l1-0.7l-2.7-3.6l-2.3,1.7l-16.6-10.5l-1.2,0.9l9.8,29.1l4.4-3.3l-2.3-6l5.9-4.5l5.3,3l3.8-2.8
		L307.4,377.7z M295.8,380.9l-2.4-7.2l6.1,4.4L295.8,380.9z"/>
</g>
<text transform="matrix(1 0 0 1 163.4583 69.4773)" class="st2 st3 st4 st14">1779</text>
<text transform="matrix(1 0 0 1 163.4583 69.4773)" class="st15 st3 st4 st14">1779</text>
</svg>
